<?xml version="1.0" encoding="UTF-8" standalone="no"?>
<!-- Created with Inkscape (http://www.inkscape.org/) -->

<svg
   version="1.1"
   id="svg270"
   width="1706.6667"
   height="1706.6667"
   viewBox="0 0 1706.6667 1706.6667"
   sodipodi:docname="tauri-logo.svg"
   inkscape:version="1.2.2 (b0a8486541, 2022-12-01)"
   xmlns:inkscape="http://www.inkscape.org/namespaces/inkscape"
   xmlns:sodipodi="http://sodipodi.sourceforge.net/DTD/sodipodi-0.dtd"
   xmlns="http://www.w3.org/2000/svg"
   xmlns:svg="http://www.w3.org/2000/svg">
  <defs
     id="defs274" />
  <sodipodi:namedview
     id="namedview272"
     pagecolor="#ffffff"
     bordercolor="#000000"
     borderopacity="0.25"
     inkscape:showpageshadow="2"
     inkscape:pageopacity="0.0"
     inkscape:pagecheckerboard="0"
     inkscape:deskcolor="#d1d1d1"
     showgrid="false"
     inkscape:zoom="0.1767767"
     inkscape:cx="933.38095"
     inkscape:cy="825.90072"
     inkscape:window-width="1366"
     inkscape:window-height="710"
     inkscape:window-x="0"
     inkscape:window-y="0"
     inkscape:window-maximized="1"
     inkscape:current-layer="g276" />
  <g
     inkscape:groupmode="layer"
     inkscape:label="Image"
     id="g276">
    <g
       id="g488"
       transform="matrix(1.2148773,0,0,1.2148773,-183.87322,-184.37044)">
      <path
         style="fill:#fec030;stroke-width:1.33333"
         d="m 1068.6317,1160.3334 c 13.5635,-34.5135 24.1795,-137.0802 16.1809,-156.3334 -0.6366,-1.5323 1.6447,-2.8732 9.7551,-5.73417 188.3325,-66.43408 283.4793,-296.71551 199.4196,-482.65085 -110.4264,-244.25729 -441.40679,-286.25874 -608.99595,-77.28164 -6.61608,8.25 -12.69572,15.00394 -13.5103,15.00874 -35.1535,0.20722 -129.35868,26.61557 -182.50019,51.15992 -12.13588,5.60517 -11.91694,6.56354 -3.61762,-15.83532 130.07623,-351.05997 578.16156,-450.382231 841.92366,-186.62017 279.527,279.52706 147.1187,758.31839 -236.56,855.40589 -23.7572,6.0116 -23.3022,5.9522 -22.0952,2.881 z M 943.26615,794.05167 C 842.45472,775.7384 798.35168,659.46096 861.78847,579.23616 c 59.62439,-75.40348 180.14043,-62.32719 223.44113,24.24391 48.288,96.54226 -36.0855,209.80523 -141.96345,190.5716 z"
         id="path492" />
      <path
         style="fill:#23c7da;stroke-width:1.33333"
         d="M 699.33335,1554.6551 C 380.49706,1527.0475 165.23992,1224.3673 245.41318,916.38282 292.78193,734.41637 441.45064,590.13126 624.17601,548.78806 c 16.62475,-3.76149 15.22158,-5.41597 9.82607,11.58583 -12.0574,37.9941 -15.97819,65.22728 -15.99155,111.07491 -0.0105,36.11545 -0.0105,36.11545 -11.34385,40.52284 -273.73099,106.45028 -306.44243,486.06716 -55.17962,640.36056 154.07221,94.6114 368.66418,55.7957 471.84634,-85.3481 4.4,-6.0188 9.2,-11.1965 10.6666,-11.506 1.4667,-0.3095 13.1635,-2.2023 25.993,-4.2061 51.473,-8.0396 108.5097,-25.2863 154.3404,-46.669 6.7833,-3.1649 12.3333,-5.2668 12.3333,-4.671 0,5.3501 -19.5549,52.7383 -31.3268,75.9155 -93.6353,184.3547 -292.94927,296.3899 -496.00655,278.8076 z m 14.83561,-378.1711 c -97.50769,-20.9106 -139.47607,-133.9018 -78.88865,-212.39158 59.59808,-77.20807 181.97481,-64.5545 224.77043,23.24093 47.90437,98.27605 -39.73788,211.91325 -145.88178,189.15065 z"
         id="path490" />
    </g>
  </g>
</svg>
